<svg xmlns="http://www.w3.org/2000/svg" width="70.555" height="43.679" viewBox="0 0 70.555 43.679">
  <g id="Group_76" data-name="Group 76" transform="translate(-1197.695 -5359.784)">
    <path id="Path_30" data-name="Path 30" d="M2.7,10.584h13.41q9.166,0,13.307,2.608t4.141,8.3a10.454,10.454,0,0,1-1.813,6.337A7.241,7.241,0,0,1,26.922,30.8V31.1a9.493,9.493,0,0,1,5.909,3.419,11.123,11.123,0,0,1,1.813,6.661,10.976,10.976,0,0,1-4.259,9.2q-4.259,3.3-11.568,3.3H2.7Zm9.137,17.065h5.305q3.714,0,5.379-1.149a4.288,4.288,0,0,0,1.665-3.8,3.8,3.8,0,0,0-1.813-3.552,11.65,11.65,0,0,0-5.733-1.076h-4.8Zm0,7.25V46.129h5.954q3.773,0,5.57-1.444a5.331,5.331,0,0,0,1.8-4.421q0-5.364-7.663-5.364Zm46.711-8.4a5.7,5.7,0,0,0-4.48,1.813,8.389,8.389,0,0,0-1.857,5.143H64.821a7.493,7.493,0,0,0-1.739-5.143A5.888,5.888,0,0,0,58.543,26.5Zm1.267,27.764q-7.958,0-12.438-4.392t-4.48-12.438q0-8.282,4.141-12.806T58.484,20.1q6.985,0,10.876,3.979t3.89,10.994v4.362H52a8.653,8.653,0,0,0,2.269,5.983,7.985,7.985,0,0,0,5.954,2.152,24.715,24.715,0,0,0,5.629-.619,28.167,28.167,0,0,0,5.541-1.975v6.956a21.108,21.108,0,0,1-5.04,1.754A31.777,31.777,0,0,1,59.811,54.263Z" transform="translate(1195 5349.2)" fill="#e63d00"/>
    <path id="Path_51" data-name="Path 51" d="M16516.762,959.8h19.381" transform="translate(-15273 4404)" fill="none" stroke="#e63d00" stroke-width="3"/>
  </g>
</svg>
