<svg xmlns="http://www.w3.org/2000/svg" width="45.227" height="40.216" viewBox="0 0 45.227 40.216">
  <path id="Path_28" data-name="Path 28" d="M2.153,13.058q0-3.851,4.29-3.851t4.29,3.851a3.754,3.754,0,0,1-1.073,2.856,4.508,4.508,0,0,1-3.218,1.021Q2.153,16.935,2.153,13.058Zm8.219,36.365H2.489v-28.9h7.883Zm37.008,0H39.5V32.546a8.107,8.107,0,0,0-1.111-4.691,4.043,4.043,0,0,0-3.541-1.564,5.323,5.323,0,0,0-4.781,2.21q-1.473,2.21-1.473,7.327V49.423H20.707v-28.9h6.022l1.06,3.7h.439a8.331,8.331,0,0,1,3.631-3.166,12.365,12.365,0,0,1,5.26-1.073q5.04,0,7.65,2.727t2.61,7.87Z" transform="translate(-2.153 -9.207)" fill="#e63d00"/>
</svg>
