<svg xmlns="http://www.w3.org/2000/svg" xmlns:xlink="http://www.w3.org/1999/xlink" width="64" height="64" viewBox="0 0 64 64">
  <defs>
    <filter id="Ellipse_17" x="0" y="0" width="64" height="64" filterUnits="userSpaceOnUse">
      <feOffset dx="6" dy="6" input="SourceAlpha"/>
      <feGaussianBlur stdDeviation="3" result="blur"/>
      <feFlood flood-opacity="0.161"/>
      <feComposite operator="in" in2="blur"/>
      <feComposite in="SourceGraphic"/>
    </filter>
    <filter id="Path_49" x="7.323" y="11.335" width="43.195" height="36.267" filterUnits="userSpaceOnUse">
      <feOffset dx="3" dy="3" input="SourceAlpha"/>
      <feGaussianBlur stdDeviation="3" result="blur-2"/>
      <feFlood flood-opacity="0.161"/>
      <feComposite operator="in" in2="blur-2"/>
      <feComposite in="SourceGraphic"/>
    </filter>
  </defs>
  <g id="Group_12" data-name="Group 12" transform="translate(3 3)">
    <g id="Group_10" data-name="Group 10">
      <g transform="matrix(1, 0, 0, 1, -3, -3)" filter="url(#Ellipse_17)">
        <circle id="Ellipse_17-2" data-name="Ellipse 17" cx="23" cy="23" r="23" transform="translate(3 3)" fill="#343a40"/>
      </g>
    </g>
    <g id="Group_75" data-name="Group 75" transform="translate(11.008 16.02)">
      <g transform="matrix(1, 0, 0, 1, -14.01, -19.02)" filter="url(#Path_49)">
        <path id="Path_49-2" data-name="Path 49" d="M1.575,0H23.621A1.575,1.575,0,0,1,25.2,1.575V16.692a1.575,1.575,0,0,1-1.575,1.575H1.575A1.575,1.575,0,0,1,0,16.692V1.575A1.575,1.575,0,0,1,1.575,0Z" transform="translate(13.32 17.34)" fill="#fff"/>
      </g>
      <g id="Group_74" data-name="Group 74" transform="translate(-1 -2)">
        <path id="Path_8" data-name="Path 8" d="M146,284l14.044,10.8L174,284.046" transform="translate(-147 -284)" fill="#343a40"/>
        <path id="Path_50" data-name="Path 50" d="M146,284l10.784,8.513,10.716-8.477" transform="translate(-143.795 -283.436)" fill="#fff"/>
      </g>
    </g>
  </g>
</svg>
