<svg xmlns="http://www.w3.org/2000/svg" xmlns:xlink="http://www.w3.org/1999/xlink" width="64" height="83.487" viewBox="0 0 64 83.487">
  <defs>
    <filter id="Subtraction_19" x="0" y="0" width="64" height="83.487" filterUnits="userSpaceOnUse">
      <feOffset dx="2" dy="3" input="SourceAlpha"/>
      <feGaussianBlur stdDeviation="3" result="blur"/>
      <feFlood flood-opacity="0.161"/>
      <feComposite operator="in" in2="blur"/>
      <feComposite in="SourceGraphic"/>
    </filter>
  </defs>
  <g transform="matrix(1, 0, 0, 1, 0, 0)" filter="url(#Subtraction_19)">
    <path id="Subtraction_19-2" data-name="Subtraction 19" d="M23,65.487h0c-.058-.075-5.847-7.6-11.5-16.479A130.135,130.135,0,0,1,3.594,35C1.209,29.934,0,25.9,0,23A23,23,0,0,1,39.263,6.737,22.85,22.85,0,0,1,46,23c0,2.9-1.209,6.934-3.594,12A130.147,130.147,0,0,1,34.5,49.007c-5.651,8.879-11.442,16.4-11.5,16.479ZM23,13A10,10,0,1,0,33,23,10.012,10.012,0,0,0,23,13Z" transform="translate(7 6)" fill="#e63d00"/>
  </g>
</svg>
