<svg xmlns="http://www.w3.org/2000/svg" xmlns:xlink="http://www.w3.org/1999/xlink" width="178.246" height="178.246" viewBox="0 0 178.246 178.246">
  <defs>
    <filter id="Subtraction_16" x="0" y="0" width="178.246" height="178.246" filterUnits="userSpaceOnUse">
      <feOffset dx="3" dy="3" input="SourceAlpha"/>
      <feGaussianBlur stdDeviation="3" result="blur"/>
      <feFlood flood-opacity="0.161"/>
      <feComposite operator="in" in2="blur"/>
      <feComposite in="SourceGraphic"/>
    </filter>
  </defs>
  <g transform="matrix(1, 0, 0, 1, 0, 0)" filter="url(#Subtraction_16)">
    <g id="Subtraction_16-2" data-name="Subtraction 16" transform="translate(6 6)" fill="none">
      <path d="M67.811,160.246h0a80.462,80.462,0,0,1-24.342-7.813,81.341,81.341,0,0,1-10.422-6.322,12.952,12.952,0,0,0-.745-17.406,12.885,12.885,0,0,0-17.536-.636A81.337,81.337,0,0,1,8.289,117.7,80.416,80.416,0,0,1,.169,93.5,12.954,12.954,0,0,0,11.955,80.66,12.921,12.921,0,0,0,0,67.811,80.4,80.4,0,0,1,7.931,43.238a81.319,81.319,0,0,1,6.833-11.061A12.884,12.884,0,0,0,33.046,14.133a81.412,81.412,0,0,1,10.191-6.2A80.388,80.388,0,0,1,67.811,0a12.92,12.92,0,0,0,12.85,11.954A12.953,12.953,0,0,0,93.5.168a80.413,80.413,0,0,1,24.2,8.12,81.367,81.367,0,0,1,10.37,6.476,12.883,12.883,0,0,0,18.042,18.281,81.28,81.28,0,0,1,6.322,10.422,80.434,80.434,0,0,1,7.813,24.343,12.883,12.883,0,0,0-.169,25.685,80.43,80.43,0,0,1-8,23.974,81.377,81.377,0,0,1-5.965,9.73,12.884,12.884,0,0,0-18.044,18.282A80.728,80.728,0,0,1,93.5,160.076a12.883,12.883,0,0,0-25.686.168Zm11.776-103.2A23.618,23.618,0,1,0,103.2,80.66,23.645,23.645,0,0,0,79.587,57.042Z" stroke="none"/>
      <path d="M 63.49187469482422 153.3271636962891 C 66.49582672119141 146.8037872314453 73.11386108398438 142.2928619384766 80.66091156005859 142.2928619384766 C 88.08353424072266 142.2928619384766 94.65283203125 146.7088317871094 97.71539306640625 153.1035461425781 C 103.609260559082 151.6893615722656 109.3036651611328 149.5622100830078 114.7027816772461 146.7539672851563 C 116.5478363037109 145.7946624755859 118.3598251342773 144.7539367675781 120.1242599487305 143.6408386230469 C 117.6380920410156 136.9046020507813 119.1289215087891 129.0381774902344 124.4637298583984 123.7033004760742 C 128.0294342041016 120.1376953125 132.7712097167969 118.1740112304688 137.8155517578125 118.1740112304688 C 139.99609375 118.1740112304688 142.1451416015625 118.5522689819336 144.1691436767578 119.2746200561523 C 145.0850219726563 117.779052734375 145.9491729736328 116.2511444091797 146.7550964355469 114.7014846801758 C 149.5626831054688 109.3024139404297 151.6897583007813 103.6079025268555 153.1040954589844 97.71480560302734 C 146.7090759277344 94.65276336669922 142.2938079833984 88.0836181640625 142.2938079833984 80.65993499755859 C 142.2938079833984 73.1116943359375 146.8045043945313 66.49402618408203 153.3280487060547 63.49099349975586 C 151.9719085693359 57.49177551269531 149.880126953125 51.69014739990234 147.0845947265625 46.18519973754883 C 146.1843109130859 44.41300201416016 145.2095794677734 42.67025375366211 144.1688079833984 40.97079467773438 C 142.1447601318359 41.69331359863281 139.9960327148438 42.07154083251953 137.8155517578125 42.07154083251953 C 132.7718048095703 42.07154083251953 128.0300140380859 40.10751342773438 124.4641265869141 36.54164505004883 C 119.1286163330078 31.20722389221191 117.637939453125 23.34104347229004 120.1243896484375 16.60539817810059 C 118.4272842407227 15.53468227386475 116.686164855957 14.53067684173584 114.9150466918945 13.60214519500732 C 109.4527282714844 10.7390251159668 103.6873321533203 8.574585914611816 97.71604919433594 7.141531467437744 C 94.65402984619141 13.53728866577148 88.08461761474609 17.95364570617676 80.66091156005859 17.95364570617676 C 73.11219024658203 17.95364570617676 66.49392700195313 13.44221591949463 63.49079895019531 6.918280124664307 C 57.41301727294922 8.291970252990723 51.53975296020508 10.4204740524292 45.97167587280273 13.27138233184814 C 44.27165222167969 14.14162158966064 42.59706878662109 15.0819034576416 40.960205078125 16.08476257324219 C 43.31313323974609 22.77049446105957 41.7896614074707 30.53517913818359 36.54317855834961 35.7827262878418 C 32.97696685791016 39.34901428222656 28.23517799377441 41.31306838989258 23.19130897521973 41.31306838989258 C 20.92319869995117 41.31306838989258 18.69364738464355 40.90560531616211 16.60283088684082 40.12798690795898 C 15.40542793273926 42.02667999267578 14.29170417785645 43.98033905029297 13.27204608917236 45.97217178344727 C 10.42117786407471 51.54020690917969 8.292603492736816 57.41305160522461 6.918607234954834 63.49076080322266 C 13.44289875030518 66.49378967285156 17.95459747314453 73.1116943359375 17.95459747314453 80.65993499755859 C 17.95459747314453 88.08253479003906 13.53789329528809 94.65196228027344 7.142443656921387 97.71453857421875 C 8.575542449951172 103.6855163574219 10.74003028869629 109.4508895874023 13.60315132141113 114.9132232666016 C 14.53103733062744 116.6835098266602 15.53348159790039 118.4226608276367 16.60246086120605 120.1178131103516 C 18.69322967529297 119.3400650024414 20.92304229736328 118.9324645996094 23.19130897521973 118.9324645996094 C 28.23504638671875 118.9324645996094 32.97681045532227 120.896484375 36.54312515258789 124.462776184082 C 41.7901496887207 129.7097778320313 43.31328201293945 137.4749603271484 40.95956802368164 144.1607818603516 C 42.66318511962891 145.20458984375 44.40932464599609 146.1815032958984 46.1840705871582 147.0830993652344 C 51.69023132324219 149.8788909912109 57.49193572998047 151.970703125 63.49187469482422 153.3271636962891 M 79.58651733398438 51.04159164428711 C 95.91815185546875 51.04159164428711 109.2048873901367 64.32833099365234 109.2048873901367 80.65993499755859 C 109.2048873901367 96.99104309082031 95.91815185546875 110.2773590087891 79.58651733398438 110.2773590087891 C 63.25543975830078 110.2773590087891 49.96912384033203 96.99104309082031 49.96912384033203 80.65993499755859 C 49.96912384033203 64.32833099365234 63.25543975830078 51.04159164428711 79.58651733398438 51.04159164428711 M 67.81060028076172 160.2456970214844 L 67.80954742431641 160.2455139160156 C 59.31707382202148 158.9507293701172 51.12728118896484 156.3222045898438 43.4676513671875 152.4329681396484 C 39.84933471679688 150.5948028564453 36.34280776977539 148.4678497314453 33.04544067382813 146.1112213134766 C 37.32180786132813 141.0444641113281 36.99467849731445 133.3995971679688 32.30049133300781 128.7054138183594 C 29.86744117736816 126.2723846435547 26.63241386413574 124.9324645996094 23.19130897521973 124.9324645996094 C 20.09217643737793 124.9324645996094 17.09938812255859 126.0465927124023 14.76425647735596 128.0696411132813 C 12.35680866241455 124.7934341430664 10.17870330810547 121.30419921875 8.288887977600098 117.6986465454102 C 4.305598258972168 110.099250793457 1.573703646659851 101.9562530517578 0.1690720915794373 93.4957275390625 C 6.77820348739624 92.93719482421875 11.95459842681885 87.29959106445313 11.95459842681885 80.65993499755859 C 11.95459842681885 73.93203735351563 6.703519344329834 68.28801727294922 -6.861636393296067e-06 67.8106689453125 C 1.308229923248291 59.2280158996582 3.97707200050354 50.96090698242188 7.931387901306152 43.23772430419922 C 9.904071807861328 39.38417053222656 12.20296669006348 35.66275024414063 14.76425647735596 32.17683029174805 C 17.09970283508301 34.19922637939453 20.09193992614746 35.31306838989258 23.19130897521973 35.31306838989258 C 26.6324405670166 35.31306838989258 29.86749267578125 33.97317123413086 32.30049133300781 31.54011917114258 C 36.99391555786133 26.84575080871582 37.32157135009766 19.19980430603027 33.04638671875 14.13335609436035 C 36.28078079223633 11.82293510437012 39.70957183837891 9.73648738861084 43.23770523071289 7.930461406707764 C 50.96175765991211 3.975672006607056 59.22930908203125 1.307514071464539 67.81067657470703 1.403487385687185e-05 C 68.2879638671875 6.703434944152832 73.93193817138672 11.95364570617676 80.66091156005859 11.95364570617676 C 87.30104827880859 11.95364570617676 92.93917846679688 6.776829719543457 93.49667358398438 0.1681456118822098 C 101.9591751098633 1.572935104370117 110.1021270751953 4.305145740509033 117.7005462646484 8.287935256958008 C 121.3059158325195 10.17809295654297 124.7949142456055 12.35704040527344 128.0706176757813 14.76427745819092 C 123.6710739135742 19.8421459197998 123.9502563476563 27.54346084594727 128.7063293457031 32.29856491088867 C 131.1394195556641 34.73162078857422 134.3744354248047 36.07154083251953 137.8155517578125 36.07154083251953 C 140.8530120849609 36.07154083251953 143.7994689941406 34.99685668945313 146.1121826171875 33.04545974731445 C 148.4691314697266 36.34246063232422 150.5955505371094 39.84893417358398 152.4339141845703 43.46767044067383 C 156.3236541748047 51.1273307800293 158.9521789550781 59.31748962402344 160.2464599609375 67.8106689453125 C 153.5436248779297 68.28801727294922 148.2938079833984 73.93154144287109 148.2938079833984 80.65993499755859 C 148.2938079833984 87.30006408691406 153.4697875976563 92.93822479248047 160.077392578125 93.4957275390625 C 158.6871185302734 101.8712005615234 155.9955444335938 109.9367752075195 152.078369140625 117.4696426391602 C 150.3258819580078 120.8393859863281 148.3188934326172 124.1131744384766 146.1131439208984 127.2000961303711 C 143.8005523681641 125.2487487792969 140.8542785644531 124.1740112304688 137.8155517578125 124.1740112304688 C 134.3738098144531 124.1740112304688 131.1387786865234 125.5135955810547 128.7063293457031 127.9459915161133 C 123.9512329101563 132.7011413574219 123.6715469360352 140.4039916992188 128.0696563720703 145.4822235107422 C 124.7226791381836 147.9424591064453 121.1567306518555 150.160888671875 117.4705963134766 152.0774078369141 C 109.9377822875977 155.9954681396484 101.8717803955078 158.6867523193359 93.49667358398438 160.0764617919922 C 92.93820190429688 153.4683837890625 87.30059814453125 148.2928619384766 80.66091156005859 148.2928619384766 C 73.93444061279297 148.2928619384766 68.28993988037109 153.5426788330078 67.81067657470703 160.2445678710938 L 67.81060028076172 160.2456970214844 Z M 79.58651733398438 57.04159164428711 C 66.56383514404297 57.04159164428711 55.96912384033203 67.63672637939453 55.96912384033203 80.65993499755859 C 55.96912384033203 93.68264770507813 66.56383514404297 104.2773590087891 79.58651733398438 104.2773590087891 C 92.60973358154297 104.2773590087891 103.2048873901367 93.68264770507813 103.2048873901367 80.65993499755859 C 103.2048873901367 67.63672637939453 92.60973358154297 57.04159164428711 79.58651733398438 57.04159164428711 Z" stroke="none" fill="#343a40"/>
    </g>
  </g>
</svg>
